<?xml version="1.0" standalone="no"?>
<!DOCTYPE svg PUBLIC "-//W3C//DTD SVG 20010904//EN"
 "http://www.w3.org/TR/2001/REC-SVG-20010904/DTD/svg10.dtd">
<svg version="1.0" xmlns="http://www.w3.org/2000/svg"
 width="1084.000000pt" height="1084.000000pt" viewBox="0 0 1084.000000 1084.000000"
 preserveAspectRatio="xMidYMid meet">
<metadata>
Created by potrace 1.11, written by Peter Selinger 2001-2013
</metadata>
<g transform="translate(0.000000,1084.000000) scale(0.100000,-0.100000)"
fill="#000000" stroke="none">
<path d="M10457 10674 c-1 -1 -42 -4 -92 -8 -49 -3 -106 -8 -125 -11 -19 -2
-57 -7 -85 -10 -70 -9 -232 -42 -345 -70 -397 -100 -817 -306 -1145 -563 -262
-204 -509 -466 -683 -723 -104 -155 -239 -402 -293 -534 -4 -11 -17 -40 -28
-65 -43 -99 -114 -329 -151 -487 -41 -177 -42 -183 -60 -278 -6 -33 -17 -85
-25 -115 -7 -30 -16 -68 -18 -85 -3 -16 -32 -156 -66 -310 -33 -154 -62 -291
-65 -305 -5 -24 -38 -184 -90 -425 -14 -66 -27 -131 -30 -145 -12 -64 -47
-224 -51 -229 -1 -3 -6 -24 -9 -46 -12 -73 -17 -98 -21 -105 -2 -4 -7 -21 -10
-37 -3 -17 -20 -105 -39 -195 -19 -89 -46 -219 -61 -288 -14 -69 -37 -174 -50
-235 -13 -60 -26 -121 -29 -135 -2 -14 -12 -58 -20 -97 -9 -40 -18 -87 -21
-105 -3 -18 -10 -49 -15 -68 -9 -34 -47 -211 -56 -260 -2 -14 -11 -56 -20 -95
-8 -38 -16 -79 -19 -90 -2 -11 -11 -53 -19 -92 -9 -40 -18 -87 -21 -105 -3
-17 -8 -34 -10 -38 -2 -4 -6 -20 -9 -36 -5 -25 -15 -79 -32 -163 -3 -12 -12
-53 -20 -90 -9 -36 -18 -77 -20 -91 -3 -14 -14 -68 -25 -120 -48 -226 -81
-376 -85 -395 -2 -11 -8 -42 -14 -70 -5 -27 -19 -93 -30 -145 -12 -52 -32
-149 -46 -215 -13 -66 -26 -129 -29 -140 -2 -11 -14 -65 -25 -120 -26 -120
-26 -118 -39 -175 -5 -25 -13 -61 -16 -80 -3 -19 -10 -51 -15 -70 -5 -19 -32
-145 -60 -280 -29 -135 -53 -252 -55 -260 -2 -8 -17 -82 -35 -165 -32 -153
-36 -173 -45 -213 -8 -34 -14 -62 -25 -117 -14 -67 -9 -44 -95 -450 -42 -198
-87 -409 -100 -470 -13 -60 -30 -143 -39 -183 -26 -118 -31 -111 77 -106 151
6 310 22 417 40 56 10 64 12 90 18 14 3 36 8 50 10 125 20 402 107 585 184 91
38 336 166 415 217 47 30 92 58 100 62 8 4 31 19 50 33 19 15 62 46 95 71 221
164 454 396 627 625 55 72 188 270 188 280 0 3 8 18 19 32 19 27 152 280 149
285 0 1 8 22 20 47 81 179 145 387 206 666 51 233 166 768 172 799 4 25 74
354 79 375 2 8 15 69 28 135 38 181 186 874 196 920 6 22 33 148 61 280 28
132 61 290 75 350 13 61 26 125 30 142 3 18 12 61 20 95 8 35 16 74 19 88 2
14 16 79 31 145 14 66 46 215 70 330 24 116 56 264 70 330 15 66 28 129 30
140 3 11 9 40 15 65 5 25 12 56 14 70 2 14 23 110 45 214 23 104 43 198 45
210 3 11 19 86 36 166 17 80 33 154 35 165 6 28 29 138 60 281 14 66 27 129
29 140 3 10 30 138 61 284 31 146 58 272 60 280 13 67 210 984 225 1050 10 47
21 96 24 110 4 22 32 158 41 200 10 46 77 359 81 380 3 14 10 45 16 70 5 25
12 59 14 75 2 17 6 35 8 40 2 7 -23 11 -71 10 -41 0 -75 -1 -76 -1z"/>
<path d="M7367 9154 c-1 -1 -53 -4 -116 -8 -62 -3 -116 -8 -120 -10 -3 -2 -33
-7 -66 -10 -481 -55 -1036 -279 -1449 -585 -156 -115 -279 -224 -421 -371
-320 -331 -572 -754 -721 -1210 -33 -101 -91 -323 -101 -385 -2 -16 -8 -46
-14 -66 -7 -30 -48 -220 -65 -309 -3 -14 -14 -63 -24 -110 -10 -47 -21 -96
-23 -110 -3 -14 -21 -101 -41 -195 -20 -93 -38 -179 -41 -190 -2 -11 -25 -117
-50 -235 -26 -118 -48 -224 -51 -235 -3 -18 -28 -139 -38 -190 -3 -11 -10 -42
-16 -70 -6 -27 -14 -61 -16 -75 -3 -14 -11 -53 -19 -88 -8 -34 -17 -76 -20
-92 -3 -16 -12 -58 -20 -92 -8 -35 -17 -79 -20 -98 -3 -19 -8 -42 -10 -50 -2
-8 -6 -26 -9 -40 -2 -14 -11 -55 -20 -93 -9 -37 -18 -79 -21 -95 -3 -15 -7
-36 -9 -47 -3 -11 -18 -87 -35 -170 -17 -82 -36 -168 -41 -190 -5 -22 -12 -51
-14 -65 -3 -14 -12 -56 -20 -95 -9 -38 -23 -104 -31 -145 -20 -99 -15 -78 -80
-380 -32 -146 -59 -276 -62 -290 -2 -14 -10 -53 -18 -86 -8 -34 -16 -73 -19
-85 -5 -30 -101 -478 -123 -579 -9 -41 -17 -79 -19 -85 -7 -39 -35 -174 -38
-190 -8 -38 -45 -210 -71 -328 -13 -65 -27 -128 -29 -140 -2 -12 -10 -44 -16
-72 -6 -27 -13 -59 -14 -70 -2 -11 -6 -29 -9 -40 -3 -11 -9 -33 -12 -50 -2
-16 -7 -39 -9 -50 -12 -54 -72 -336 -117 -550 -27 -132 -52 -247 -55 -256 -4
-14 7 -16 88 -13 114 4 265 16 348 29 19 4 53 8 75 11 22 3 46 7 54 10 8 3 30
7 50 10 139 21 445 115 621 191 184 80 455 228 550 302 19 14 49 35 65 46 26
16 148 111 181 140 317 281 498 493 681 798 52 86 183 339 183 352 0 3 11 30
24 58 55 117 166 482 190 622 2 17 14 71 25 120 11 50 23 106 26 125 3 19 10
51 15 70 8 31 43 194 56 260 3 14 16 75 29 135 27 122 193 898 199 930 2 11
54 254 116 540 61 286 122 572 135 635 13 63 44 208 69 322 25 113 47 217 50
230 2 12 12 57 21 98 23 108 85 401 91 430 3 14 25 115 49 225 38 178 57 265
69 330 2 11 9 38 14 60 6 22 13 54 16 70 7 45 44 218 50 235 3 8 7 29 10 45 6
38 14 77 27 135 6 25 13 56 15 70 3 14 10 45 15 70 6 25 13 56 15 70 3 14 16
75 29 135 14 61 27 121 29 135 3 14 35 162 71 330 36 168 70 325 75 350 5 25
17 77 25 115 8 39 18 83 20 98 3 16 7 34 8 40 1 7 -21 11 -61 12 -34 1 -64 0
-65 -1z"/>
<path d="M4247 7794 c-1 -1 -45 -4 -97 -8 -382 -27 -788 -126 -1133 -277 -107
-47 -315 -155 -338 -175 -8 -8 -19 -14 -24 -14 -13 0 -184 -119 -294 -204
-111 -87 -306 -273 -387 -371 -300 -360 -471 -737 -549 -1205 -3 -19 -8 -42
-10 -50 -2 -8 -6 -26 -9 -40 -2 -14 -13 -72 -25 -130 -11 -58 -23 -116 -25
-130 -3 -14 -14 -69 -25 -124 -12 -54 -23 -108 -25 -120 -2 -11 -7 -32 -10
-46 -3 -14 -8 -37 -11 -52 -9 -51 -16 -83 -31 -148 -8 -36 -17 -81 -20 -100
-3 -19 -9 -51 -14 -70 -5 -19 -11 -48 -14 -65 -5 -28 -150 -700 -197 -910 -11
-49 -22 -101 -25 -115 -7 -33 -125 -552 -128 -565 -2 -5 -6 -28 -11 -50 -10
-50 -4 -27 -71 -315 -30 -135 -57 -252 -59 -260 -2 -8 -10 -45 -19 -81 -8 -37
-17 -78 -20 -90 -2 -13 -16 -73 -31 -134 -15 -60 -28 -117 -30 -125 -3 -15
-62 -268 -131 -565 -20 -82 -37 -157 -39 -165 -2 -8 -19 -80 -39 -160 -19 -80
-37 -156 -40 -170 -3 -14 -12 -54 -21 -90 -9 -36 -18 -72 -20 -80 -2 -8 -11
-46 -20 -85 -9 -38 -18 -78 -20 -88 -2 -10 -13 -50 -24 -90 -10 -40 -22 -93
-26 -118 l-7 -46 74 2 c92 3 285 16 307 20 9 1 39 6 66 9 28 4 61 8 75 11 14
3 41 7 60 10 166 26 452 104 585 160 17 7 71 29 120 49 172 72 491 252 553
313 7 7 17 13 21 13 4 0 21 12 39 28 17 15 43 36 59 47 122 88 338 302 488
486 210 256 412 637 521 983 48 152 195 732 228 901 2 11 13 58 24 105 17 73
29 122 38 165 1 6 43 192 92 415 50 223 93 417 96 433 2 15 7 35 10 45 3 9 7
28 10 42 3 14 23 108 46 210 23 102 43 192 45 200 2 8 6 26 9 40 3 14 8 36 11
50 2 14 21 97 40 185 20 88 38 171 41 185 3 14 16 75 30 135 14 61 27 119 29
130 3 11 7 31 10 45 3 14 7 34 9 45 15 73 56 254 60 266 3 8 7 28 10 44 2 17
14 73 26 125 12 52 23 104 26 115 2 11 10 49 18 85 31 134 127 576 132 610 3
19 8 38 10 41 2 3 6 20 9 37 3 18 12 62 21 99 21 89 74 340 80 378 3 17 9 46
14 65 14 55 60 281 60 295 0 9 -24 12 -91 11 -50 0 -91 -2 -92 -2z"/>
</g>
</svg>
