<svg version="1" xmlns="http://www.w3.org/2000/svg" width="933.333" height="933.333" viewBox="0 0 700.000000 700.000000"><path d="M639.7 45.6c-.1.1-3.1.5-6.7.8-3.6.4-7.4.9-8.5 1.1-1.1.3-3.8.7-6 1.1-8.1 1.2-10.1 1.6-18 4-4.4 1.3-8.7 2.6-9.5 2.8-4 1-16.5 6.5-24.9 10.9-42.5 22-74.9 60-90.1 105.8-2.6 7.7-6.3 22.6-7.6 30.4-.3 1.6-1.2 5.5-1.9 8.5s-1.6 7.3-2 9.5c-.3 2.2-1 5.6-1.5 7.5-.6 1.9-3.1 13.4-5.6 25.5-8.4 40.2-11.3 54-12.4 59-.7 2.7-1.4 6.1-1.6 7.5-.3 1.3-1.2 5.6-2 9.5-.9 3.8-1.8 8.3-2 10-.3 1.6-.9 4.3-1.4 6-.5 1.6-1.2 5-1.5 7.5-.4 2.4-.9 4.8-1.2 5.2-.2.5-.6 2.1-.9 3.6-.2 1.5-1.1 5.6-1.9 9.2-1.9 8.9-6.3 29.9-6.9 33-.2 1.4-1.2 5.8-2 9.7-.9 4-1.8 8.6-2.1 10.2-.3 1.7-.9 4-1.4 5.3-.5 1.3-.9 2.6-.9 3.1-.1 1.8-1.4 9.5-2.3 12.7-.7 3-8.3 38.5-9.5 44.5-.7 3.8-6.5 31-7.9 37.5-2.7 12.4-5.5 25.5-6.1 28.5-.3 1.6-2.3 11.5-4.6 22-3.8 18.1-4.3 20.2-5.2 24.2-.4 1.7-4.1 19.7-5.2 25.1-.3 1.3-1.6 7.5-2.9 13.7-1.4 6.3-2.5 12.1-2.5 12.8 0 1.1 1.4 1.3 6.3 1 11.7-.7 28.7-2.8 31.7-3.9.8-.3 2.9-.8 4.5-1.1 10.1-1.6 32.9-10.9 50-20.2 10.8-5.9 27.6-19.3 39.1-31.1 6.2-6.4 9.4-10.2 17.7-21.1 7.4-9.7 18.1-30.7 23.5-46.1 2.6-7.3 9.9-37.3 11.7-48.1.3-1.8.8-3.9 1-4.7.2-.8.6-2.6.9-4 .2-1.4 2.7-13.1 5.5-26s5.2-24.7 5.5-26.2c.3-1.5.7-3.1.9-3.6.3-.4.8-2.8 1.2-5.2.3-2.5 1-6.1 1.5-8 .5-1.9 3.2-14.3 6-27.5 2.7-13.2 5.5-26 6.1-28.5.6-2.5 1.3-5.9 1.6-7.5.2-1.7 1.1-5.5 1.8-8.5s1.6-7.3 2-9.5c.3-2.2.8-4.8 1.1-5.7.3-.9.7-2.5.9-3.5.2-1 1.5-7.2 3-13.8 2.3-10.5 3.4-15.7 5.1-24.1.2-1.1 2.2-10.6 4.5-21 2.2-10.4 4.3-20 4.5-21.4.5-2.5 4.1-19.2 4.8-22.5.1-.6.8-3.7 1.5-7 .6-3.3 1.6-7.8 2.1-10 .6-2.2 1.2-5.1 1.4-6.5.3-1.4 1.9-9 3.6-17 7.1-32.7 8.2-37.8 9.5-44.5.8-3.9 2.6-12.2 4-18.5 1.4-6.3 2.8-13.1 3.1-15 .3-1.9.8-3.8 1-4.1.2-.4.6-2.4.9-4.5.4-2.2.8-4.7 1.1-5.6.3-.9.7-2.5.9-3.5.2-1 1.3-6.3 2.5-11.8 1.2-5.5 2.3-11.1 2.6-12.5.3-1.4.7-3.1.9-3.8.2-.6-.1-1.3-.8-1.3-1.9-.2-9.8-.4-10-.3zM461.7 133.7c-.1.1-3.7.4-7.9.8-4.2.3-8.7.8-10 1-1.2.3-4 .7-6.3 1-5.4.8-20.3 4.8-29.5 8-17.9 6.3-40.7 19.3-55.5 31.8-8.6 7.2-23.3 22.3-27.5 28.3-19.4 27.4-28.2 46.3-34.5 74.4-.3 1.3-5.3 24.6-5.9 27.5-.1.5-.5 2.3-.9 4-1.8 8.3-16 75.3-16.3 77-.2 1.1-3.1 14.8-6.5 30.5s-6.2 29.2-6.3 30c-.2.8-.6 2.8-.9 4.5-.4 1.6-.9 3.9-1.1 5-.4 2.1-10.4 48.6-11.2 52-.3 1.1-.6 3.1-.9 4.5-.2 1.4-1.1 5.9-2 10-.9 4.1-1.8 8.4-2.1 9.5-.2 1.1-.6 3.1-.9 4.5-.3 1.4-.7 3.4-.9 4.5-.3 1.1-1.8 8.3-3.5 16.1-1.6 7.7-3.7 17.6-4.7 22-.9 4.3-1.8 8.8-2.1 9.9-.2 1.1-.6 3.1-.9 4.5-.3 1.4-1.6 7.4-2.9 13.5-8.3 38.1-9.6 44.8-8.4 45.6 1.3.7 5.9.5 20.9-1.2 30-3.3 61.1-15.6 86.5-34.3 9.3-6.8 11.5-8.7 20.8-18 27.5-27.5 43.7-59.1 52.1-101.6.8-4.1 3.1-14.9 5.1-24 2-9.1 3.8-17.6 4.1-19 .3-1.4 1-4.5 1.5-7 .6-2.5 2.3-10.6 3.9-18s4.9-23 7.4-34.5c2.5-11.6 4.8-22.6 5.1-24.5.3-1.9 1.3-6.2 2.1-9.5 1.1-4.9 9.4-43.3 11-51 .2-1.1.8-4 1.4-6.5.5-2.5 1.2-5.6 1.4-7 .2-1.4 6.3-29.7 13.5-63 7.1-33.3 13.2-61.6 13.5-63 .2-1.4 2-9.9 4-19s3.6-17.2 3.6-18c0-1.1-1.1-1.5-4.1-1.5-2.2 0-4.1.1-4.2.2zM280.7 212.6c-.1.1-3.6.4-7.7.8-4.1.3-8.4.8-9.5 1-2.5.4-10.7 1.6-11.7 1.7-.4 0-2.2.5-4 1-1.8.5-4.6 1.2-6.2 1.5-6.9 1.2-27.4 8.7-37.3 13.7-17.9 8.9-31 18.1-44.7 31.5-6.8 6.7-21.6 24.9-21.6 26.6 0 .3-1.4 2.8-3.1 5.6-5.3 8.7-12.1 26.6-14.3 38-5.6 29.3-21.7 105.8-27 129-.8 3.6-1.7 7.6-2 9-.7 3.5-12.2 54.5-19 84-5.4 23.2-8.9 37.8-18.9 79.5-2.6 10.6-4 18.3-3.4 18.6.5.4 3 .5 5.6.4 4.5-.2 21.1-1.7 22.1-2 .3-.1 2.5-.5 5-.9s7.2-1.5 10.5-2.3c3.3-.8 6.9-1.7 7.9-1.9 1.1-.2 4.2-1.1 7-2.1 2.8-.9 5.3-1.8 5.6-1.8.8-.3 4.1-1.6 11.3-4.7 32.3-13.9 60.2-38.6 79.6-70.7 3.3-5.6 6.1-10.4 6.1-10.7 0-.3 1.3-3.4 2.9-6.8 5.2-11.2 11.2-30.2 15.6-49.6.2-.8 1.3-5.3 2.4-10 1.1-4.7 2.2-9.7 2.5-11 .2-1.4 1.6-7.2 3-13 1.3-5.8 4.3-19.1 6.6-29.5 2.2-10.5 4.9-22.6 6-27 1-4.4 2.2-9.6 2.5-11.5.3-1.9 1-5.1 1.5-7 .5-1.9 1.1-4.6 1.4-6 .2-1.4 4.2-19.8 8.9-41 15.4-69.6 17.8-80.5 18.3-83 .2-1.4.7-3.6 1-5 1.1-4.6 1.3-5.4 4.3-19.5 1.6-7.7 3.2-15.4 3.5-17 .3-1.7.8-4.2 1.1-5.6l.6-2.7-6.1.2c-3.4 0-6.2.2-6.3.2z"/></svg>