<?xml version="1.0" encoding="UTF-8" standalone="no"?>
<svg
   xmlns="http://www.w3.org/2000/svg"
   width="76.800003mm"
   height="76.800003mm"
   viewBox="0 0 76.800003 76.800003"
   version="1.1">
  <g
     transform="translate(-37.865847,-100.94879)">
    <g
       style="clip-rule:evenodd;fill-rule:evenodd;stroke-linejoin:round;stroke-miterlimit:2"
       transform="matrix(0.26458333,0,0,0.26458333,20.41066,105.53431)">
      <g
         transform="translate(1.498727,0.02976643)">
        <path
           style="fill:#68a042;fill-rule:nonzero"
           d="m 156.306,202.948 c -9.229,28.914 -35.541,51.091 -71.436,51.091 0,0 19.031,-77.823 29.439,-132.07 5.738,-29.907 35.597,-51.294 71.614,-51.294 h 0.091 c 0,0 0.216,0.784 -22.168,101.468 -3.316,14.917 -6.216,26.657 -7.54,30.805 z"
        />
        <path
           style="fill:#7cb342;fill-rule:nonzero"
           d="m 226.27,193.855 c -7.509,35.102 -38.524,60.184 -74.419,60.184 0,0 19.475,-91.674 33.051,-155.576 7.484,-35.23 38.593,-60.424 74.609,-60.424 h 0.091 c 0,0 -19.66,91.904 -33.332,155.816 z"
        />
        <path
           style="fill:#8bc349;fill-rule:nonzero"
           d="m 293.318,193.824 c -7.488,35.1 -38.515,60.215 -74.39,60.215 -0.001,0 -0.001,0 -0.001,0 0,0 24.871,-117.279 40.715,-191.99 7.482,-35.281 38.652,-60.542 74.703,-60.542 0,0 -25.092,117.621 -41.027,192.317 z"
         />
      </g>
    </g>
  </g>
</svg>
