<?xml version="1.0" encoding="UTF-8" standalone="no"?>
<svg
   xmlns:dc="http://purl.org/dc/elements/1.1/"
   xmlns:cc="http://creativecommons.org/ns#"
   xmlns:rdf="http://www.w3.org/1999/02/22-rdf-syntax-ns#"
   xmlns:svg="http://www.w3.org/2000/svg"
   xmlns="http://www.w3.org/2000/svg"
   xmlns:sodipodi="http://sodipodi.sourceforge.net/DTD/sodipodi-0.dtd"
   xmlns:inkscape="http://www.inkscape.org/namespaces/inkscape"
   width="100%"
   height="100%"
   viewBox="0 0 1042 1084"
   version="1.1"
   xml:space="preserve"
   style="fill-rule:evenodd;clip-rule:evenodd;stroke-linejoin:round;stroke-miterlimit:2;"
   id="svg4687"
   sodipodi:docname="mask.svg"
   inkscape:version="0.92.4 (f8dce91, 2019-08-02)"><metadata
     id="metadata4693"><rdf:RDF><cc:Work
         rdf:about=""><dc:format>image/svg+xml</dc:format><dc:type
           rdf:resource="http://purl.org/dc/dcmitype/StillImage" /><dc:title /></cc:Work></rdf:RDF></metadata><defs
     id="defs4691" /><sodipodi:namedview
     pagecolor="#ffffff"
     bordercolor="#666666"
     borderopacity="1"
     objecttolerance="10"
     gridtolerance="10"
     guidetolerance="10"
     inkscape:pageopacity="0"
     inkscape:pageshadow="2"
     inkscape:window-width="1871"
     inkscape:window-height="1025"
     id="namedview4689"
     showgrid="false"
     inkscape:zoom="0.61578303"
     inkscape:cx="624.8006"
     inkscape:cy="405.43389"
     inkscape:window-x="49"
     inkscape:window-y="27"
     inkscape:window-maximized="1"
     inkscape:current-layer="g4685" /><rect
     id="logo-mark"
     x="1.277"
     y="1.489"
     width="1038.58"
     height="1080.93"
     style="fill:none;" /><clipPath
     id="_clip1"><rect
       x="1.277"
       y="1.489"
       width="1038.58"
       height="1080.93"
       id="rect4674" /></clipPath><g
     clip-path="url(#_clip1)"
     id="g4685"><g
       id="g4683"
       style="fill:#000000"><path
         d="M298.668,854.915c-38.42,120.37 -147.956,212.691 -297.39,212.691c-0.001,0 79.229,-323.979 122.557,-549.81c23.887,-124.506 148.192,-213.541 298.13,-213.541c0.251,0 0.379,0 0.379,0c0,0 0.898,3.265 -92.284,422.417c-13.806,62.1 -25.879,110.972 -31.392,128.243Z"
         style="fill:#000000;fill-rule:nonzero"
         id="path4677" /><path
         d="M589.933,817.06c-31.259,146.128 -160.376,250.546 -309.811,250.546c-0.001,0 81.078,-381.642 137.594,-647.667c31.158,-146.666 160.662,-251.547 310.601,-251.547c0.25,0 0.379,0 0.379,0c0,0 -81.846,382.6 -138.763,648.668Z"
         style="fill:#000000;fill-rule:nonzero"
         id="path4679" /><path
         d="M869.057,816.929c-31.172,146.123 -160.341,250.677 -309.691,250.677c-0.001,0 -0.002,0 -0.002,0c0,0 103.54,-488.234 169.5,-799.263c31.147,-146.876 160.907,-252.038 310.989,-252.038c0,0 -104.459,489.661 -170.796,800.624Z"
         style="fill:#000000;fill-rule:nonzero"
         id="path4681" /></g></g></svg>