<?xml version="1.0" encoding="UTF-8" standalone="no"?>
<svg
   xmlns="http://www.w3.org/2000/svg"
   xml:space="preserve"
   version="1.1"
   viewBox="0 0 1042 1084"
   height="100%"
   width="100%">
   <path
      style="fill:#000000;fill-rule:nonzero"
      d="M298.668,854.915c-38.42,120.37 -147.956,212.691 -297.39,212.691c-0.001,0 79.229,-323.979 122.557,-549.81c23.887,-124.506 148.192,-213.541 298.13,-213.541c0.251,0 0.379,0 0.379,0c0,0 0.898,3.265 -92.284,422.417c-13.806,62.1 -25.879,110.972 -31.392,128.243Z" />
   <path
      style="fill:#000000;fill-rule:nonzero"
      d="M589.933,817.06c-31.259,146.128 -160.376,250.546 -309.811,250.546c-0.001,0 81.078,-381.642 137.594,-647.667c31.158,-146.666 160.662,-251.547 310.601,-251.547c0.25,0 0.379,0 0.379,0c0,0 -81.846,382.6 -138.763,648.668Z" />
   <path
      style="fill:#000000;fill-rule:nonzero"
      d="M869.057,816.929c-31.172,146.123 -160.341,250.677 -309.691,250.677c-0.001,0 -0.002,0 -0.002,0c0,0 103.54,-488.234 169.5,-799.263c31.147,-146.876 160.907,-252.038 310.989,-252.038c0,0 -104.459,489.661 -170.796,800.624Z" />
</svg>