<?xml version="1.0" encoding="UTF-8" standalone="no"?><!DOCTYPE svg PUBLIC "-//W3C//DTD SVG 1.1//EN" "http://www.w3.org/Graphics/SVG/1.1/DTD/svg11.dtd"><svg width="100%" height="100%" viewBox="0 0 720 259" version="1.1" xmlns="http://www.w3.org/2000/svg" xmlns:xlink="http://www.w3.org/1999/xlink" xml:space="preserve" xmlns:serif="http://www.serif.com/" style="fill-rule:evenodd;clip-rule:evenodd;stroke-linejoin:round;stroke-miterlimit:2;"><rect id="Knockout" x="0" y="0" width="720" height="258.696" style="fill:none;"/><g><path d="M618.956,257.219c-22.476,-0.127 -39.97,-6.282 -52.48,-18.845c-12.511,-12.564 -18.766,-30.031 -18.766,-52.401c0,-22.37 4.426,-42.541 13.279,-60.512c8.853,-17.97 20.992,-31.594 36.418,-40.871c15.427,-9.277 33.265,-13.915 53.515,-13.915c20.144,0 35.994,4.559 47.55,13.677c11.556,9.118 17.335,21.257 17.335,36.418c0,21.31 -8.297,37.664 -24.889,49.061c-16.592,11.398 -40.58,17.096 -71.962,17.096l-9.383,0l0,2.545c0,15.691 8.694,23.536 26.082,23.536c8.375,0 16.592,-1.245 24.649,-3.737c8.058,-2.491 17.229,-6.441 27.513,-11.848c0,0 7.433,60.228 -68.861,59.796Zm25.127,-144.878c-6.467,0 -12.51,3.685 -18.129,11.053c-5.619,7.368 -9.012,15.718 -10.178,25.048l4.612,0c11.556,0 20.621,-2.2 27.194,-6.6c6.573,-4.4 9.86,-10.205 9.86,-17.414c0,-3.393 -1.06,-6.256 -3.181,-8.588c-2.12,-2.332 -5.513,-3.499 -10.178,-3.499Z" style="fill:#fff;fill-rule:nonzero;"/><path d="M12.434,139.444c-13.898,-26.982 -10.947,-61.266 14.454,-86.628c0.001,0 41.519,68.519 72.482,114.26c17.07,25.219 11.052,61.451 -14.436,86.898c-0.042,0.043 -0.064,0.065 -0.064,0.065c0,0 -0.707,-0.403 -56.006,-87.468c-8.193,-12.899 -14.435,-23.256 -16.43,-27.127Z" style="fill:#fff;fill-rule:nonzero;"/><path d="M156.306,202.948c-9.229,28.914 -35.541,51.091 -71.436,51.091c0,0 19.031,-77.823 29.439,-132.07c5.738,-29.907 35.597,-51.294 71.614,-51.294l0.091,0c0,0 0.216,0.784 -22.168,101.468c-3.316,14.917 -6.216,26.657 -7.54,30.805Z" style="fill:#68a042;fill-rule:nonzero;"/><path d="M226.27,193.855c-7.509,35.102 -38.524,60.184 -74.419,60.184c0,0 19.475,-91.674 33.051,-155.576c7.484,-35.23 38.593,-60.424 74.609,-60.424l0.091,0c0,0 -19.66,91.904 -33.332,155.816Z" style="fill:#7cb342;fill-rule:nonzero;"/><path d="M293.318,193.824c-7.488,35.1 -38.515,60.215 -74.39,60.215c-0.001,0 -0.001,0 -0.001,0c0,0 24.871,-117.279 40.715,-191.99c7.482,-35.281 38.652,-60.542 74.703,-60.542c0,0 -25.092,117.621 -41.027,192.317Z" style="fill:#8bc349;fill-rule:nonzero;"/><path d="M377.145,254.039c0,0 16.441,-78.236 20.833,-100.349c4.672,-23.523 2.108,-33.959 -6.786,-34.192c-7.207,-0.189 -16.741,-0.018 -27.186,46.914c-1.603,7.203 -4.025,18.406 -6.601,30.422c-7.258,33.389 -36.807,57.204 -70.976,57.204c0,0.001 0,0.001 0,0.001c0,0 16.061,-76.136 27.302,-129.426c6.24,-29.584 32.345,-50.757 62.581,-50.757l1.367,0l-5.828,29.739c6.467,-12.087 13.274,-20.595 21.331,-25.525c8.058,-4.93 12.259,-7.395 24.452,-7.395c12.404,0 18.783,2.836 25.516,8.508c6.732,5.672 10.565,13.809 13.322,24.412l1.272,0c6.891,-11.239 12.056,-19.535 20.962,-24.889c8.906,-5.354 15.597,-8.031 27.366,-8.031c14.949,0 23.559,4.479 31.299,13.438c7.739,8.959 11.609,22.185 11.609,39.679c0,10.284 -1.166,21.151 -3.499,32.601c0,0 -3.841,18.868 -8.146,40.016c-6.828,33.536 -36.321,57.63 -70.544,57.63c0,0 16.294,-78.242 20.515,-100.349c6.366,-33.339 -2.243,-34.159 -7.994,-34.192c-6.153,-0.036 -17.101,1.556 -25.703,48.186c-1.248,6.765 -3.272,16.94 -5.512,27.959c-6.65,33.922 -36.383,58.392 -70.952,58.392c0,0.004 0,0.004 0,0.004Z" style="fill:#fff;fill-rule:nonzero;"/></g></svg>